<svg xmlns="http://www.w3.org/2000/svg" width="97" height="97" version="1.0" viewBox="0 0 72.75 72.75"><defs><clipPath id="a"><path d="M0 0h72.074v72.074H0Zm0 0"/></clipPath><clipPath id="b"><path d="M36.04 0C16.132 0 0 16.133 0 36.04 0 55.94 16.133 72.073 36.04 72.073c19.901 0 36.034-16.133 36.034-36.035C72.074 16.133 55.941 0 36.04 0Zm0 0"/></clipPath><clipPath id="c"><path d="M20.16 12.902h31.395V59H20.16Zm0 0"/></clipPath></defs><g clip-path="url(#a)"><g clip-path="url(#b)"><path fill="#e27f90" d="M0 0h72.074v72.074H0Zm0 0"/></g></g><g clip-path="url(#c)"><path fill="#fff" fill-rule="evenodd" d="M36.035 12.922c8.766 0 15.871 7.105 15.871 15.871 0 3.05-.863 5.898-2.351 8.316-1.79 2.961-3.578 5.926-5.367 8.891-2.18 3.54-3.942 6.406-6.122 9.945-1.918 3.125-2.05 3.2-3.98.063L27.93 46c-1.785-2.93-3.57-5.86-5.352-8.79a15.795 15.795 0 0 1-2.418-8.417c0-8.766 7.11-15.871 15.875-15.871Zm0 7.957a7.112 7.112 0 0 1 7.113 7.113 7.115 7.115 0 1 1-7.113-7.113Zm0 0"/></g></svg>