<svg xmlns="http://www.w3.org/2000/svg" width="97" height="97" version="1.0" viewBox="0 0 72.75 72.75"><defs><clipPath id="a"><path d="M0 0h72.074v72.074H0Zm0 0"/></clipPath><clipPath id="b"><path d="M36.04 0C16.132 0 0 16.133 0 36.04 0 55.94 16.133 72.073 36.04 72.073c19.901 0 36.034-16.133 36.034-36.035C72.074 16.133 55.941 0 36.04 0Zm0 0"/></clipPath><clipPath id="c"><path d="M16.32 14.008h39.614v44.097H16.32Zm0 0"/></clipPath></defs><g clip-path="url(#a)"><g clip-path="url(#b)"><path fill="#e27f90" d="M0 0h72.074v72.074H0Zm0 0"/></g></g><g clip-path="url(#c)"><path fill="#fff" d="M54.227 35.172H39.53v-6.625h14.696Zm-2.704 21.367H39.531V36.687h11.992Zm-17.476 0V36.687h3.969V56.54ZM20.539 36.687h11.992V56.54H20.54Zm-2.703-8.14H32.53v6.625H17.836Zm4.676-8.781c-.16-.989.98-2.141 1.816-2.98.777-.786 1.465-1.169 2.156-1.196.86-.035 1.852.492 2.942 1.574 1.187 1.176 2.984 3.379 4.324 5.66.645 1.098 1.098 2.074 1.305 2.828.09.317.129.57.133.766l-10.641-4.684c-.86-.441-1.906-1.14-2.035-1.968Zm14.414 5.886c.21-.754.664-1.73 1.308-2.828 1.34-2.281 3.137-4.484 4.32-5.66 1.094-1.082 2.087-1.61 2.946-1.574.691.027 1.379.41 2.156 1.195.832.84 1.973 1.992 1.817 2.98-.133.829-1.176 1.528-2.035 1.97l-10.645 4.683c.008-.195.047-.45.133-.766Zm1.09 9.52h-3.97v-6.625h3.97Zm16.972-8.14H39.164l8.902-3.919c.016-.004.028-.011.043-.02 1.735-.886 2.672-1.898 2.864-3.09.277-1.745-1.176-3.214-2.239-4.284-1.05-1.063-2.09-1.602-3.172-1.645-1.316-.054-2.648.602-4.074 2.012-1.508 1.496-3.34 3.894-4.562 5.969-.375.636-.684 1.23-.934 1.78-.25-.55-.562-1.144-.937-1.78-1.22-2.075-3.051-4.473-4.563-5.97-1.422-1.41-2.754-2.065-4.074-2.01-1.082.042-2.117.581-3.168 1.644-1.063 1.07-2.516 2.539-2.238 4.285.191 1.191 1.125 2.203 2.863 3.09a.182.182 0 0 0 .04.02l8.905 3.917H17.074a.759.759 0 0 0-.758.758v8.14c0 .419.34.758.758.758h1.946v20.61c0 .422.34.762.757.762h32.508a.76.76 0 0 0 .758-.762v-20.61h1.945c.418 0 .758-.34.758-.757v-8.14a.759.759 0 0 0-.758-.759"/></g></svg>