<svg xmlns="http://www.w3.org/2000/svg" xmlns:xlink="http://www.w3.org/1999/xlink" width="97" zoomAndPan="magnify" viewBox="0 0 72.75 72.749999" height="97" preserveAspectRatio="xMidYMid meet" version="1.0"><defs><clipPath id="c203042185"><path d="M 0 0 L 72.074219 0 L 72.074219 72.074219 L 0 72.074219 Z M 0 0 " clip-rule="nonzero"/></clipPath><clipPath id="383455f6cd"><path d="M 36.039062 0 C 16.132812 0 0 16.132812 0 36.039062 C 0 55.941406 16.132812 72.074219 36.039062 72.074219 C 55.941406 72.074219 72.074219 55.941406 72.074219 36.039062 C 72.074219 16.132812 55.941406 0 36.039062 0 Z M 36.039062 0 " clip-rule="nonzero"/></clipPath><clipPath id="cb1336b153"><path d="M 8.304688 8.234375 L 63.613281 8.234375 L 63.613281 63.542969 L 8.304688 63.542969 Z M 8.304688 8.234375 " clip-rule="nonzero"/></clipPath></defs><g clip-path="url(#c203042185)"><g clip-path="url(#383455f6cd)"><path fill="#e27f90" d="M 0 0 L 72.074219 0 L 72.074219 72.074219 L 0 72.074219 Z M 0 0 " fill-opacity="1" fill-rule="nonzero"/></g></g><g clip-path="url(#cb1336b153)"><path fill="#ffffff" d="M 36.015625 8.285156 C 20.617188 8.335938 8.308594 20.859375 8.507812 36.257812 C 8.546875 39.378906 9.097656 42.410156 10.167969 45.34375 C 11.238281 48.277344 12.761719 50.949219 14.742188 53.367188 C 15.058594 53.753906 15.238281 54.199219 15.28125 54.699219 C 15.328125 55.199219 15.226562 55.667969 14.980469 56.105469 L 12.601562 60.367188 C 11.945312 61.546875 13.019531 62.945312 14.328125 62.609375 L 22.382812 60.558594 C 22.964844 60.414062 23.523438 60.46875 24.058594 60.730469 C 27.664062 62.484375 31.46875 63.402344 35.476562 63.488281 C 50.957031 63.835938 63.667969 51.464844 63.714844 35.976562 C 63.761719 20.660156 51.335938 8.234375 36.015625 8.285156 Z M 36.109375 60.09375 C 35.316406 60.09375 34.527344 60.054688 33.738281 59.976562 C 32.949219 59.898438 32.167969 59.78125 31.390625 59.628906 C 30.613281 59.472656 29.84375 59.28125 29.085938 59.050781 C 28.328125 58.820312 27.582031 58.554688 26.847656 58.25 C 26.117188 57.945312 25.402344 57.609375 24.703125 57.234375 C 24.003906 56.863281 23.324219 56.453125 22.664062 56.015625 C 22.003906 55.574219 21.371094 55.101562 20.757812 54.597656 C 20.144531 54.097656 19.558594 53.566406 18.996094 53.003906 C 18.4375 52.445312 17.90625 51.855469 17.402344 51.246094 C 16.898438 50.632812 16.425781 49.996094 15.988281 49.335938 C 15.546875 48.675781 15.140625 48 14.765625 47.300781 C 14.390625 46.601562 14.054688 45.882812 13.75 45.152344 C 13.445312 44.417969 13.179688 43.675781 12.949219 42.914062 C 12.71875 42.15625 12.527344 41.390625 12.371094 40.613281 C 12.21875 39.835938 12.101562 39.050781 12.023438 38.261719 C 11.945312 37.472656 11.90625 36.683594 11.90625 35.890625 C 11.90625 22.523438 22.746094 11.6875 36.109375 11.6875 C 49.425781 11.6875 60.230469 22.4375 60.3125 35.734375 C 60.398438 49.074219 49.453125 60.09375 36.109375 60.09375 Z M 36.109375 60.09375 " fill-opacity="1" fill-rule="nonzero"/></g><path fill="#e27f90" d="M 60.3125 35.890625 C 60.3125 36.683594 60.273438 37.472656 60.199219 38.261719 C 60.121094 39.050781 60.003906 39.835938 59.847656 40.613281 C 59.695312 41.390625 59.5 42.15625 59.273438 42.914062 C 59.042969 43.675781 58.773438 44.417969 58.472656 45.152344 C 58.167969 45.882812 57.828125 46.601562 57.457031 47.300781 C 57.082031 48 56.675781 48.675781 56.234375 49.335938 C 55.792969 49.996094 55.324219 50.632812 54.820312 51.242188 C 54.316406 51.855469 53.785156 52.445312 53.226562 53.003906 C 52.664062 53.5625 52.078125 54.097656 51.464844 54.597656 C 50.851562 55.101562 50.214844 55.574219 49.558594 56.015625 C 48.898438 56.453125 48.21875 56.859375 47.519531 57.234375 C 46.820312 57.609375 46.105469 57.945312 45.371094 58.25 C 44.640625 58.554688 43.894531 58.820312 43.136719 59.050781 C 42.378906 59.28125 41.609375 59.472656 40.832031 59.628906 C 40.054688 59.78125 39.273438 59.898438 38.484375 59.976562 C 37.695312 60.054688 36.902344 60.09375 36.109375 60.09375 C 35.316406 60.09375 34.527344 60.054688 33.738281 59.976562 C 32.949219 59.898438 32.167969 59.78125 31.390625 59.628906 C 30.613281 59.472656 29.84375 59.28125 29.085938 59.050781 C 28.328125 58.820312 27.582031 58.554688 26.847656 58.25 C 26.117188 57.945312 25.402344 57.609375 24.703125 57.234375 C 24.003906 56.859375 23.324219 56.453125 22.664062 56.015625 C 22.003906 55.574219 21.371094 55.101562 20.757812 54.597656 C 20.144531 54.097656 19.558594 53.5625 18.996094 53.003906 C 18.4375 52.445312 17.90625 51.855469 17.402344 51.242188 C 16.898438 50.632812 16.425781 49.996094 15.988281 49.335938 C 15.546875 48.675781 15.140625 48 14.765625 47.300781 C 14.390625 46.601562 14.054688 45.882812 13.75 45.152344 C 13.445312 44.417969 13.179688 43.675781 12.949219 42.914062 C 12.71875 42.15625 12.527344 41.390625 12.371094 40.613281 C 12.21875 39.835938 12.101562 39.050781 12.023438 38.261719 C 11.945312 37.472656 11.90625 36.683594 11.90625 35.890625 C 11.90625 35.097656 11.945312 34.304688 12.023438 33.515625 C 12.101562 32.730469 12.21875 31.945312 12.371094 31.167969 C 12.527344 30.390625 12.71875 29.621094 12.949219 28.863281 C 13.179688 28.105469 13.445312 27.359375 13.75 26.628906 C 14.054688 25.894531 14.390625 25.179688 14.765625 24.480469 C 15.140625 23.78125 15.546875 23.101562 15.988281 22.445312 C 16.425781 21.785156 16.898438 21.148438 17.402344 20.535156 C 17.90625 19.921875 18.4375 19.335938 18.996094 18.777344 C 19.558594 18.214844 20.144531 17.683594 20.757812 17.179688 C 21.371094 16.679688 22.003906 16.207031 22.664062 15.765625 C 23.324219 15.324219 24.003906 14.917969 24.703125 14.542969 C 25.402344 14.171875 26.117188 13.832031 26.847656 13.527344 C 27.582031 13.226562 28.328125 12.960938 29.085938 12.730469 C 29.84375 12.5 30.613281 12.304688 31.390625 12.152344 C 32.167969 11.996094 32.949219 11.882812 33.738281 11.804688 C 34.527344 11.726562 35.316406 11.6875 36.109375 11.6875 C 36.902344 11.6875 37.695312 11.726562 38.484375 11.804688 C 39.273438 11.882812 40.054688 11.996094 40.832031 12.152344 C 41.609375 12.304688 42.378906 12.5 43.136719 12.730469 C 43.894531 12.960938 44.640625 13.226562 45.371094 13.527344 C 46.105469 13.832031 46.820312 14.171875 47.519531 14.542969 C 48.21875 14.917969 48.898438 15.324219 49.558594 15.765625 C 50.214844 16.207031 50.851562 16.679688 51.464844 17.179688 C 52.078125 17.683594 52.664062 18.214844 53.226562 18.777344 C 53.785156 19.335938 54.316406 19.921875 54.820312 20.535156 C 55.324219 21.148438 55.792969 21.785156 56.234375 22.445312 C 56.675781 23.101562 57.082031 23.78125 57.457031 24.480469 C 57.828125 25.179688 58.167969 25.894531 58.472656 26.628906 C 58.773438 27.359375 59.042969 28.105469 59.273438 28.863281 C 59.5 29.621094 59.695312 30.390625 59.847656 31.167969 C 60.003906 31.945312 60.121094 32.730469 60.199219 33.515625 C 60.273438 34.304688 60.3125 35.097656 60.3125 35.890625 Z M 60.3125 35.890625 " fill-opacity="1" fill-rule="nonzero"/><path fill="#ffffff" d="M 31.785156 24.125 L 31.796875 24.144531 L 33.238281 27.007812 C 33.394531 27.316406 33.5 27.644531 33.550781 27.988281 C 33.601562 28.332031 33.59375 28.675781 33.53125 29.015625 C 33.472656 29.359375 33.359375 29.679688 33.191406 29.984375 C 33.027344 30.289062 32.816406 30.5625 32.5625 30.796875 C 32.308594 31.03125 32.097656 31.300781 31.933594 31.605469 C 31.765625 31.90625 31.652344 32.226562 31.589844 32.566406 C 31.527344 32.90625 31.523438 33.246094 31.570312 33.589844 C 31.617188 33.929688 31.71875 34.253906 31.871094 34.566406 C 32.738281 36.304688 34.238281 38.703125 36.53125 40.433594 C 37.054688 40.832031 37.648438 41.050781 38.308594 41.085938 C 38.964844 41.117188 39.578125 40.964844 40.140625 40.621094 L 41.070312 40.058594 C 41.492188 39.800781 41.953125 39.648438 42.445312 39.601562 C 42.9375 39.558594 43.414062 39.625 43.875 39.796875 L 47.570312 41.203125 C 47.96875 41.355469 48.320312 41.578125 48.632812 41.867188 C 48.941406 42.160156 49.183594 42.5 49.355469 42.886719 C 49.53125 43.273438 49.625 43.679688 49.636719 44.105469 C 49.648438 44.53125 49.578125 44.941406 49.429688 45.339844 C 49.386719 45.453125 49.335938 45.5625 49.28125 45.671875 L 48.257812 47.65625 C 48.089844 47.976562 47.875 48.265625 47.609375 48.515625 C 47.34375 48.765625 47.046875 48.964844 46.714844 49.113281 C 46.382812 49.261719 46.035156 49.347656 45.671875 49.378906 C 45.308594 49.410156 44.953125 49.378906 44.597656 49.289062 C 38.796875 47.785156 24.964844 42.566406 23.851562 26.785156 C 23.804688 26.144531 23.941406 25.542969 24.253906 24.984375 C 24.570312 24.425781 25.011719 24 25.582031 23.707031 L 27.46875 22.738281 C 27.847656 22.542969 28.246094 22.429688 28.671875 22.394531 C 29.09375 22.359375 29.507812 22.40625 29.914062 22.535156 C 30.316406 22.667969 30.683594 22.867188 31.007812 23.144531 C 31.332031 23.417969 31.589844 23.746094 31.785156 24.125 Z M 31.785156 24.125 " fill-opacity="1" fill-rule="nonzero"/></svg>